<svg id="Layer_3" enable-background="new 0 0 64 64" height="512" viewBox="0 0 64 64" width="512" xmlns="http://www.w3.org/2000/svg"><g><path d="m59 39h-12-30-12c-2.206 0-4 1.794-4 4s1.794 4 4 4h27 27c2.206 0 4-1.794 4-4s-1.794-4-4-4zm-54 6c-1.103 0-2-.897-2-2s.897-2 2-2h46v4zm54 0h-6v-4h6c1.103 0 2 .897 2 2s-.897 2-2 2z"/><path d="m24 55c0 4.411 3.589 8 8 8s8-3.589 8-8-3.589-8-8-8-8 3.589-8 8zm8-6c3.309 0 6 2.691 6 6s-2.691 6-6 6-6-2.691-6-6 2.691-6 6-6z"/><path d="m31 59h2v-3h3v-2h-3v-3h-2v3h-3v2h3z"/><path d="m25.5 30.914 1.793 1.793 1.414-1.414-1.662-1.662 4.955-4.011 4.955 4.011-1.662 1.662 1.414 1.414 1.793-1.793 7.793 7.793c.195.195.451.293.707.293s.512-.098.707-.293l3-3c.391-.391.391-1.023 0-1.414l-7.793-7.793 1.793-1.793-1.414-1.414-1.662 1.662-3.488-4.308 8.486-6.869c.142-.114.249-.265.311-.436l4-11c.133-.365.042-.774-.232-1.049-.273-.275-.683-.366-1.049-.232l-11 4c-.171.062-.321.169-.436.311l-6.223 7.686-6.223-7.687c-.114-.142-.265-.249-.436-.311l-11-4c-.366-.134-.775-.043-1.049.232-.274.274-.365.684-.232 1.049l4 11c.062.171.169.321.311.436l8.485 6.87-3.487 4.308-1.662-1.662-1.414 1.414 1.793 1.793-7.793 7.793c-.391.391-.391 1.023 0 1.414l3 3c.195.195.451.293.707.293s.512-.098.707-.293zm21.5 5.672-2-2v-3.172l3.586 3.586zm-4-7.172v3.172l-3.086-3.086 1.586-1.586zm-2.791-3.037-1.832 1.832-4.788-3.876 3-2.428zm-9.496-11.73-1.186 1.466-11.633-11.633 6.504 2.365zm-11.868-2.25-2.365-6.503 11.782 11.782-1.147 1.417zm20.758-5.552 6.504-2.365-17.814 17.813 1.414 1.414 17.813-17.813-2.365 6.504-19.532 15.811-1.832-1.832zm-15.517 22.655-3.086 3.086v-3.172l1.5-1.5zm-8.672 5.5 3.586-3.586v3.172l-2 2z"/></g></svg>