<?xml version="1.0" encoding="UTF-8" standalone="no"?>
<svg
   viewBox="0 0 100 100"
   version="1.1"
   id="svg6"
   sodipodi:docname="buff.svg"
   inkscape:version="1.1 (c68e22c387, 2021-05-23)"
   xmlns="http://www.w3.org/2000/svg"
   xmlns:svg="http://www.w3.org/2000/svg">
  <path
     style="stroke-width:2.63152"
     d="m 32.895049,78.721603 4.718334,4.7183 3.720987,-3.720958 -4.373606,-4.373571 13.039237,-10.554989 13.039236,10.554989 -4.373604,4.373571 3.720985,3.720958 4.718334,-4.7183 20.507522,20.507367 C 88.125623,99.74211 88.799295,100 89.472967,100 c 0.673672,0 1.347344,-0.25789 1.860491,-0.77103 l 7.894594,-7.894535 c 1.028928,-1.028922 1.028928,-2.692037 0,-3.720957 l -20.507521,-20.507364 4.718335,-4.7183 -3.720985,-3.720956 -4.373604,4.373571 -9.178781,-11.336548 22.331171,-18.075848 c 0.373679,-0.299993 0.655253,-0.69735 0.818408,-1.147339 L 99.841198,3.5340743 c 0.349992,-0.9605014 0.11053,-2.0367907 -0.610515,-2.76045614 -0.718407,-0.7236654 -1.797336,-0.9631329 -2.760476,-0.6105106 L 67.523365,10.689152 c -0.44999,0.163154 -0.84472,0.444726 -1.147347,0.818401 L 50.000001,31.733346 33.623983,11.50492 C 33.323988,11.131246 32.926628,10.849675 32.476636,10.686521 L 3.5297926,0.16047616 C 2.5666522,-0.19214624 1.4903559,0.04732116 0.76931637,0.77098656 0.04827697,1.4920206 -0.19119235,2.5709413 0.15880131,3.5314428 L 10.684926,32.478063 c 0.163155,0.449987 0.444729,0.844714 0.818406,1.147339 l 22.328542,18.078479 -9.176148,11.336548 -4.373606,-4.373571 -3.720985,3.720956 4.718335,4.7183 -20.50752203,20.507364 c -1.0289286,1.02892 -1.0289286,2.692035 0,3.720957 L 8.6665422,99.22897 C 9.1796908,99.74211 9.8533623,100 10.527034,100 c 0.673672,0 1.347344,-0.25789 1.860493,-0.77103 z m 56.577918,14.92593 -5.263064,-5.263023 v -8.347151 l 9.436671,9.436597 z M 78.946842,74.774337 v 8.347152 l -8.120905,-8.120843 4.173608,-4.173575 z M 71.602238,66.782439 66.781274,71.603366 54.181503,61.40363 62.076096,55.014322 Z M 46.61322,35.914816 43.492225,39.77261 12.879623,9.1602451 29.995102,15.383767 Z M 15.382208,29.993916 9.1586384,12.8812 40.163337,43.885662 37.144971,47.614513 Z M 70.007531,15.383767 87.123009,9.1602451 40.244916,56.035348 43.9659,59.756304 90.841363,12.8812 84.617791,29.996547 33.218727,71.603366 28.397763,66.782439 Z m -40.833467,59.616879 -8.120905,8.120843 v -8.347152 l 3.947297,-3.947266 z M 6.3534253,89.473956 15.790096,80.037359 v 8.347151 l -5.263062,5.263023 z"
     />
</svg>
