<svg height="512" viewBox="0 0 60 60" width="512" xmlns="http://www.w3.org/2000/svg"><g id="Page-1" fill="none" fill-rule="evenodd"><g id="053---Buffed-Weapon" fill="rgb(0,0,0)" fill-rule="nonzero"><path id="Shape" d="m58.89.006-16.313 1.812c-.2668845.03044234-.5105797.16614851-.677.377l-25.585 32.644-1.636-1.639c.6793616-2.2653744-.3801279-4.6896714-2.5041322-5.729892-2.1240044-1.0402205-4.68878647-.3908925-6.06193225 1.5347046-1.37314578 1.925597-1.15141596 4.5619904.52406445 6.2311874l5.636 5.637-9.46 9.461-1.106-1.104c-.39074146-.3904653-1.02403468-.3902415-1.4145.0005s-.39024146 1.0240347.0005 1.4145l1.812 1.812 5.438 5.443 1.812 1.812c.39046532.3907414 1.0237585.3909653 1.4145.0005.3907414-.3904653.3909653-1.0237585.0005-1.4145l-1.106-1.1 9.461-9.461 5.637 5.636c1.6739826 1.7213334 4.3518078 1.9681473 6.3122244.581795 1.9604166-1.3863524 2.6200987-3.9933592 1.5550162-6.1452898s-3.5380123-3.2084738-5.8292406-2.4905052l-1.634-1.634 32.634-25.585c.2115465-.1658275.3474276-.4098368.377-.677l1.817-16.313c.0333206-.30178094-.0722672-.60235653-.287-.817-.2155066-.21335732-.5154058-.31870745-.817-.287zm-50.839 29.794c1.11556788-1.0831376 2.8940774-1.0700221 3.9935498.0294502 1.0994723 1.0994724 1.1125878 2.8779819.0294502 3.9935498-1.1258953 1.0741608-2.89710466 1.0741608-4.023 0-1.10909665-1.1116757-1.10909665-2.9113243 0-4.023zm3.192 22.98-2.682-5.364 2.139-2.134 2.682 5.364zm-7.016-1.03 2.843-2.843 2.682 5.364-1.5 1.5zm10.641-2.594-2.682-5.365 1.5-1.5 4.023 4.024zm15.332-1.23c1.1090967 1.1116757 1.1090967 2.9113243 0 4.023-1.1258953 1.0741608-2.8971047 1.0741608-4.023 0-1.0831376-1.1155679-1.0700221-2.8940774.0294502-3.9935498 1.0994724-1.0994723 2.8779819-1.1125878 3.9935498-.0294502zm-5.437-1.414c-.7226444.7262505-1.193956 1.6646687-1.345 2.678l-3.585-3.585-5.433-5.437-3.584-3.584c1.013313-.1508453 1.9515678-.6226013 2.677-1.346.069-.068.116-.148.179-.219l11.308 11.313c-.07.068-.151.112-.218.18zm-3.317-6.543 5.637-5.637c.3789722-.3923789.3735524-1.0160848-.0121814-1.4018186s-1.0094397-.3911536-1.4018186-.0121814l-5.637 5.637-2.292-2.292 24.719-31.538 3.563 7.839-16.729 16.729c-.2599566.2510745-.3642126.6228779-.2726972.9725073.0915155.3496295.3645604.6226744.7141899.7141899.3496294.0915154.7214328-.0127406.9725073-.2726972l16.729-16.729 7.839 3.563-31.538 24.719zm34.9-24.137-7.4-3.364 3.761-3.761c.2525868-.2527654.3511378-.62108371.25853-.96621297-.0926079-.34512927-.3623054-.61463614-.7075-.707-.3451947-.09236386-.7134432.00644757-.96603.25921297l-3.76 3.761-3.364-7.4 13.7-1.522z"/><path id="Shape" d="m54 41h-5v-5c0-1.1045695-.8954305-2-2-2h-2c-1.1045695 0-2 .8954305-2 2v5h-5c-1.1045695 0-2 .8954305-2 2v2c0 1.1045695.8954305 2 2 2h5v5c0 1.1045695.8954305 2 2 2h2c1.1045695 0 2-.8954305 2-2v-5h5c1.1045695 0 2-.8954305 2-2v-2c0-1.1045695-.8954305-2-2-2zm0 4h-5c-1.1045695 0-2 .8954305-2 2v5h-2v-5c0-1.1045695-.8954305-2-2-2h-5v-2h5c1.1045695 0 2-.8954305 2-2v-5h2v5c0 1.1045695.8954305 2 2 2h5z"/><path id="Shape" d="m18 7h-2c-1.1045695 0-2 .8954305-2 2v2h-2c-1.1045695 0-2 .8954305-2 2v2c0 1.1045695.8954305 2 2 2h2v2c0 1.1045695.8954305 2 2 2h2c1.1045695 0 2-.8954305 2-2v-2h2c1.1045695 0 2-.8954305 2-2v-2c0-1.1045695-.8954305-2-2-2h-2v-2c0-1.1045695-.8954305-2-2-2zm4 6v2h-2c-1.1045695 0-2 .8954305-2 2v2h-2v-2c0-1.1045695-.8954305-2-2-2h-2v-2h2c1.1045695 0 2-.8954305 2-2v-2h2v2c0 1.1045695.8954305 2 2 2z"/><path id="Shape" d="m57 30h-1v-1c0-.5522847-.4477153-1-1-1s-1 .4477153-1 1v1h-1c-.5522847 0-1 .4477153-1 1s.4477153 1 1 1h1v1c0 .5522847.4477153 1 1 1s1-.4477153 1-1v-1h1c.5522847 0 1-.4477153 1-1s-.4477153-1-1-1z"/><path id="Shape" d="m42 56h-1v-1c0-.5522847-.4477153-1-1-1s-1 .4477153-1 1v1h-1c-.5522847 0-1 .4477153-1 1s.4477153 1 1 1h1v1c0 .5522847.4477153 1 1 1s1-.4477153 1-1v-1h1c.5522847 0 1-.4477153 1-1s-.4477153-1-1-1z"/><path id="Shape" d="m29 4c-.5522847 0-1 .44771525-1 1v1h-1c-.5522847 0-1 .44771525-1 1s.4477153 1 1 1h1v1c0 .55228475.4477153 1 1 1s1-.44771525 1-1v-1h1c.5522847 0 1-.44771525 1-1s-.4477153-1-1-1h-1v-1c0-.55228475-.4477153-1-1-1z"/><path id="Shape" d="m9 0c-.55228475 0-1 .44771525-1 1v1h-1c-.55228475 0-1 .44771525-1 1s.44771525 1 1 1h1v1c0 .55228475.44771525 1 1 1s1-.44771525 1-1v-1h1c.5522847 0 1-.44771525 1-1s-.4477153-1-1-1h-1v-1c0-.55228475-.44771525-1-1-1z"/><path id="Shape" d="m6 21c.55228475 0 1-.4477153 1-1v-1h1c.55228475 0 1-.4477153 1-1s-.44771525-1-1-1h-1v-1c0-.5522847-.44771525-1-1-1s-1 .4477153-1 1v1h-1c-.55228475 0-1 .4477153-1 1s.44771525 1 1 1h1v1c0 .5522847.44771525 1 1 1z"/></g></g></svg>